<svg width="490" height="490" viewBox="0 0 490 490" fill="none" xmlns="http://www.w3.org/2000/svg">
<circle cx="245" cy="150" r="150" fill="#ECAD5F" fill-opacity="0.6"/>
<path d="M182 66.88V70H168.992V53.2H181.688V56.32H172.856V59.968H180.656V62.992H172.856V66.88H182ZM192.748 56.896C194.348 56.896 195.636 57.376 196.612 58.336C197.604 59.296 198.1 60.72 198.1 62.608V70H194.356V63.184C194.356 62.16 194.132 61.4 193.684 60.904C193.236 60.392 192.588 60.136 191.74 60.136C190.796 60.136 190.044 60.432 189.484 61.024C188.924 61.6 188.644 62.464 188.644 63.616V70H184.9V57.088H188.476V58.6C188.972 58.056 189.588 57.64 190.324 57.352C191.06 57.048 191.868 56.896 192.748 56.896ZM215.024 57.088V67.84C215.024 70.208 214.408 71.968 213.176 73.12C211.944 74.272 210.144 74.848 207.776 74.848C206.528 74.848 205.344 74.696 204.224 74.392C203.104 74.088 202.176 73.648 201.44 73.072L202.928 70.384C203.472 70.832 204.16 71.184 204.992 71.44C205.824 71.712 206.656 71.848 207.488 71.848C208.784 71.848 209.736 71.552 210.344 70.96C210.968 70.384 211.28 69.504 211.28 68.32V67.768C210.304 68.84 208.944 69.376 207.2 69.376C206.016 69.376 204.928 69.12 203.936 68.608C202.96 68.08 202.184 67.344 201.608 66.4C201.032 65.456 200.744 64.368 200.744 63.136C200.744 61.904 201.032 60.816 201.608 59.872C202.184 58.928 202.96 58.2 203.936 57.688C204.928 57.16 206.016 56.896 207.2 56.896C209.072 56.896 210.496 57.512 211.472 58.744V57.088H215.024ZM207.944 66.304C208.936 66.304 209.744 66.016 210.368 65.44C211.008 64.848 211.328 64.08 211.328 63.136C211.328 62.192 211.008 61.432 210.368 60.856C209.744 60.264 208.936 59.968 207.944 59.968C206.952 59.968 206.136 60.264 205.496 60.856C204.856 61.432 204.536 62.192 204.536 63.136C204.536 64.08 204.856 64.848 205.496 65.44C206.136 66.016 206.952 66.304 207.944 66.304ZM218.579 57.088H222.323V70H218.579V57.088ZM220.451 55.288C219.763 55.288 219.203 55.088 218.771 54.688C218.339 54.288 218.123 53.792 218.123 53.2C218.123 52.608 218.339 52.112 218.771 51.712C219.203 51.312 219.763 51.112 220.451 51.112C221.139 51.112 221.699 51.304 222.131 51.688C222.563 52.072 222.779 52.552 222.779 53.128C222.779 53.752 222.563 54.272 222.131 54.688C221.699 55.088 221.139 55.288 220.451 55.288ZM233.715 56.896C235.315 56.896 236.603 57.376 237.579 58.336C238.571 59.296 239.067 60.72 239.067 62.608V70H235.323V63.184C235.323 62.16 235.099 61.4 234.651 60.904C234.203 60.392 233.555 60.136 232.707 60.136C231.763 60.136 231.011 60.432 230.451 61.024C229.891 61.6 229.611 62.464 229.611 63.616V70H225.867V57.088H229.443V58.6C229.939 58.056 230.555 57.64 231.291 57.352C232.027 57.048 232.835 56.896 233.715 56.896ZM255.32 63.592C255.32 63.64 255.296 63.976 255.248 64.6H245.48C245.656 65.4 246.072 66.032 246.728 66.496C247.384 66.96 248.2 67.192 249.176 67.192C249.848 67.192 250.44 67.096 250.952 66.904C251.48 66.696 251.968 66.376 252.416 65.944L254.408 68.104C253.192 69.496 251.416 70.192 249.08 70.192C247.624 70.192 246.336 69.912 245.216 69.352C244.096 68.776 243.232 67.984 242.624 66.976C242.016 65.968 241.712 64.824 241.712 63.544C241.712 62.28 242.008 61.144 242.6 60.136C243.208 59.112 244.032 58.32 245.072 57.76C246.128 57.184 247.304 56.896 248.6 56.896C249.864 56.896 251.008 57.168 252.032 57.712C253.056 58.256 253.856 59.04 254.432 60.064C255.024 61.072 255.32 62.248 255.32 63.592ZM248.624 59.728C247.776 59.728 247.064 59.968 246.488 60.448C245.912 60.928 245.56 61.584 245.432 62.416H251.792C251.664 61.6 251.312 60.952 250.736 60.472C250.16 59.976 249.456 59.728 248.624 59.728ZM270.53 63.592C270.53 63.64 270.506 63.976 270.458 64.6H260.69C260.866 65.4 261.282 66.032 261.938 66.496C262.594 66.96 263.41 67.192 264.386 67.192C265.058 67.192 265.65 67.096 266.162 66.904C266.69 66.696 267.178 66.376 267.626 65.944L269.618 68.104C268.402 69.496 266.626 70.192 264.29 70.192C262.834 70.192 261.546 69.912 260.426 69.352C259.306 68.776 258.442 67.984 257.834 66.976C257.226 65.968 256.922 64.824 256.922 63.544C256.922 62.28 257.218 61.144 257.81 60.136C258.418 59.112 259.242 58.32 260.282 57.76C261.338 57.184 262.514 56.896 263.81 56.896C265.074 56.896 266.218 57.168 267.242 57.712C268.266 58.256 269.066 59.04 269.642 60.064C270.234 61.072 270.53 62.248 270.53 63.592ZM263.834 59.728C262.986 59.728 262.274 59.968 261.698 60.448C261.122 60.928 260.77 61.584 260.642 62.416H267.002C266.874 61.6 266.522 60.952 265.946 60.472C265.37 59.976 264.666 59.728 263.834 59.728ZM276.669 58.792C277.117 58.168 277.717 57.696 278.469 57.376C279.237 57.056 280.117 56.896 281.109 56.896V60.352C280.693 60.32 280.413 60.304 280.269 60.304C279.197 60.304 278.357 60.608 277.749 61.216C277.141 61.808 276.837 62.704 276.837 63.904V70H273.093V57.088H276.669V58.792ZM283.405 57.088H287.149V70H283.405V57.088ZM285.277 55.288C284.589 55.288 284.029 55.088 283.597 54.688C283.165 54.288 282.949 53.792 282.949 53.2C282.949 52.608 283.165 52.112 283.597 51.712C284.029 51.312 284.589 51.112 285.277 51.112C285.965 51.112 286.525 51.304 286.957 51.688C287.389 52.072 287.605 52.552 287.605 53.128C287.605 53.752 287.389 54.272 286.957 54.688C286.525 55.088 285.965 55.288 285.277 55.288ZM298.542 56.896C300.142 56.896 301.43 57.376 302.406 58.336C303.398 59.296 303.894 60.72 303.894 62.608V70H300.15V63.184C300.15 62.16 299.926 61.4 299.478 60.904C299.03 60.392 298.382 60.136 297.534 60.136C296.59 60.136 295.838 60.432 295.278 61.024C294.718 61.6 294.438 62.464 294.438 63.616V70H290.694V57.088H294.27V58.6C294.766 58.056 295.382 57.64 296.118 57.352C296.854 57.048 297.662 56.896 298.542 56.896ZM320.818 57.088V67.84C320.818 70.208 320.202 71.968 318.97 73.12C317.738 74.272 315.938 74.848 313.57 74.848C312.322 74.848 311.138 74.696 310.018 74.392C308.898 74.088 307.97 73.648 307.234 73.072L308.722 70.384C309.266 70.832 309.954 71.184 310.786 71.44C311.618 71.712 312.45 71.848 313.282 71.848C314.578 71.848 315.53 71.552 316.138 70.96C316.762 70.384 317.074 69.504 317.074 68.32V67.768C316.098 68.84 314.738 69.376 312.994 69.376C311.81 69.376 310.722 69.12 309.73 68.608C308.754 68.08 307.978 67.344 307.402 66.4C306.826 65.456 306.538 64.368 306.538 63.136C306.538 61.904 306.826 60.816 307.402 59.872C307.978 58.928 308.754 58.2 309.73 57.688C310.722 57.16 311.81 56.896 312.994 56.896C314.866 56.896 316.29 57.512 317.266 58.744V57.088H320.818ZM313.738 66.304C314.73 66.304 315.538 66.016 316.162 65.44C316.802 64.848 317.122 64.08 317.122 63.136C317.122 62.192 316.802 61.432 316.162 60.856C315.538 60.264 314.73 59.968 313.738 59.968C312.746 59.968 311.93 60.264 311.29 60.856C310.65 61.432 310.33 62.192 310.33 63.136C310.33 64.08 310.65 64.848 311.29 65.44C311.93 66.016 312.746 66.304 313.738 66.304Z" fill="white"/>
<circle cx="340" cy="243" r="150" fill="#E79085" fill-opacity="0.6"/>
<path d="M387.88 238.32V242.76H395.656V245.88H387.88V252H383.992V235.2H396.688V238.32H387.88ZM402.468 240.792C402.916 240.168 403.516 239.696 404.268 239.376C405.036 239.056 405.916 238.896 406.908 238.896V242.352C406.492 242.32 406.212 242.304 406.068 242.304C404.996 242.304 404.156 242.608 403.548 243.216C402.94 243.808 402.636 244.704 402.636 245.904V252H398.892V239.088H402.468V240.792ZM409.204 239.088H412.948V252H409.204V239.088ZM411.076 237.288C410.388 237.288 409.828 237.088 409.396 236.688C408.964 236.288 408.748 235.792 408.748 235.2C408.748 234.608 408.964 234.112 409.396 233.712C409.828 233.312 410.388 233.112 411.076 233.112C411.764 233.112 412.324 233.304 412.756 233.688C413.188 234.072 413.404 234.552 413.404 235.128C413.404 235.752 413.188 236.272 412.756 236.688C412.324 237.088 411.764 237.288 411.076 237.288ZM420.837 252.192C419.765 252.192 418.717 252.064 417.693 251.808C416.669 251.536 415.853 251.2 415.245 250.8L416.493 248.112C417.069 248.48 417.765 248.784 418.581 249.024C419.397 249.248 420.197 249.36 420.981 249.36C422.565 249.36 423.357 248.968 423.357 248.184C423.357 247.816 423.141 247.552 422.709 247.392C422.277 247.232 421.613 247.096 420.717 246.984C419.661 246.824 418.789 246.64 418.101 246.432C417.413 246.224 416.813 245.856 416.301 245.328C415.805 244.8 415.557 244.048 415.557 243.072C415.557 242.256 415.789 241.536 416.253 240.912C416.733 240.272 417.421 239.776 418.317 239.424C419.229 239.072 420.301 238.896 421.533 238.896C422.445 238.896 423.349 239 424.245 239.208C425.157 239.4 425.909 239.672 426.501 240.024L425.253 242.688C424.117 242.048 422.877 241.728 421.533 241.728C420.733 241.728 420.133 241.84 419.733 242.064C419.333 242.288 419.133 242.576 419.133 242.928C419.133 243.328 419.349 243.608 419.781 243.768C420.213 243.928 420.901 244.08 421.845 244.224C422.901 244.4 423.765 244.592 424.437 244.8C425.109 244.992 425.693 245.352 426.189 245.88C426.685 246.408 426.933 247.144 426.933 248.088C426.933 248.888 426.693 249.6 426.213 250.224C425.733 250.848 425.029 251.336 424.101 251.688C423.189 252.024 422.101 252.192 420.837 252.192ZM436.945 238.896C438.145 238.896 439.233 239.176 440.209 239.736C441.201 240.28 441.977 241.056 442.537 242.064C443.097 243.056 443.377 244.216 443.377 245.544C443.377 246.872 443.097 248.04 442.537 249.048C441.977 250.04 441.201 250.816 440.209 251.376C439.233 251.92 438.145 252.192 436.945 252.192C435.169 252.192 433.817 251.632 432.889 250.512V252H429.313V234.192H433.057V240.456C434.001 239.416 435.297 238.896 436.945 238.896ZM436.297 249.12C437.257 249.12 438.041 248.8 438.649 248.16C439.273 247.504 439.585 246.632 439.585 245.544C439.585 244.456 439.273 243.592 438.649 242.952C438.041 242.296 437.257 241.968 436.297 241.968C435.337 241.968 434.545 242.296 433.921 242.952C433.313 243.592 433.009 244.456 433.009 245.544C433.009 246.632 433.313 247.504 433.921 248.16C434.545 248.8 435.337 249.12 436.297 249.12ZM458.601 245.592C458.601 245.64 458.577 245.976 458.529 246.6H448.761C448.937 247.4 449.353 248.032 450.009 248.496C450.665 248.96 451.481 249.192 452.457 249.192C453.129 249.192 453.721 249.096 454.233 248.904C454.761 248.696 455.249 248.376 455.697 247.944L457.689 250.104C456.473 251.496 454.697 252.192 452.361 252.192C450.905 252.192 449.617 251.912 448.497 251.352C447.377 250.776 446.513 249.984 445.905 248.976C445.297 247.968 444.993 246.824 444.993 245.544C444.993 244.28 445.289 243.144 445.881 242.136C446.489 241.112 447.313 240.32 448.353 239.76C449.409 239.184 450.585 238.896 451.881 238.896C453.145 238.896 454.289 239.168 455.313 239.712C456.337 240.256 457.137 241.04 457.713 242.064C458.305 243.072 458.601 244.248 458.601 245.592ZM451.905 241.728C451.057 241.728 450.345 241.968 449.769 242.448C449.193 242.928 448.841 243.584 448.713 244.416H455.073C454.945 243.6 454.593 242.952 454.017 242.472C453.441 241.976 452.737 241.728 451.905 241.728ZM473.812 245.592C473.812 245.64 473.788 245.976 473.74 246.6H463.972C464.148 247.4 464.564 248.032 465.22 248.496C465.876 248.96 466.692 249.192 467.668 249.192C468.34 249.192 468.932 249.096 469.444 248.904C469.972 248.696 470.46 248.376 470.908 247.944L472.9 250.104C471.684 251.496 469.908 252.192 467.572 252.192C466.116 252.192 464.828 251.912 463.708 251.352C462.588 250.776 461.724 249.984 461.116 248.976C460.508 247.968 460.204 246.824 460.204 245.544C460.204 244.28 460.5 243.144 461.092 242.136C461.7 241.112 462.524 240.32 463.564 239.76C464.62 239.184 465.796 238.896 467.092 238.896C468.356 238.896 469.5 239.168 470.524 239.712C471.548 240.256 472.348 241.04 472.924 242.064C473.516 243.072 473.812 244.248 473.812 245.592ZM467.116 241.728C466.268 241.728 465.556 241.968 464.98 242.448C464.404 242.928 464.052 243.584 463.924 244.416H470.284C470.156 243.6 469.804 242.952 469.228 242.472C468.652 241.976 467.948 241.728 467.116 241.728Z" fill="white"/>
<circle cx="150" cy="243" r="150" fill="#67C2C9" fill-opacity="0.6"/>
<path d="M25.056 248.4H17.256L15.768 252H11.784L19.272 235.2H23.112L30.624 252H26.544L25.056 248.4ZM23.832 245.448L21.168 239.016L18.504 245.448H23.832ZM38.2958 252.192C36.9198 252.192 35.6798 251.912 34.5758 251.352C33.4878 250.776 32.6318 249.984 32.0078 248.976C31.3998 247.968 31.0958 246.824 31.0958 245.544C31.0958 244.264 31.3998 243.12 32.0078 242.112C32.6318 241.104 33.4878 240.32 34.5758 239.76C35.6798 239.184 36.9198 238.896 38.2958 238.896C39.6558 238.896 40.8398 239.184 41.8478 239.76C42.8718 240.32 43.6158 241.128 44.0798 242.184L41.1758 243.744C40.5038 242.56 39.5358 241.968 38.2718 241.968C37.2958 241.968 36.4878 242.288 35.8478 242.928C35.2078 243.568 34.8878 244.44 34.8878 245.544C34.8878 246.648 35.2078 247.52 35.8478 248.16C36.4878 248.8 37.2958 249.12 38.2718 249.12C39.5518 249.12 40.5198 248.528 41.1758 247.344L44.0798 248.928C43.6158 249.952 42.8718 250.752 41.8478 251.328C40.8398 251.904 39.6558 252.192 38.2958 252.192ZM54.821 251.376C54.453 251.648 53.997 251.856 53.453 252C52.925 252.128 52.365 252.192 51.773 252.192C50.237 252.192 49.045 251.8 48.197 251.016C47.365 250.232 46.949 249.08 46.949 247.56V242.256H44.957V239.376H46.949V236.232H50.693V239.376H53.909V242.256H50.693V247.512C50.693 248.056 50.829 248.48 51.101 248.784C51.389 249.072 51.789 249.216 52.301 249.216C52.893 249.216 53.397 249.056 53.813 248.736L54.821 251.376ZM56.9927 239.088H60.7367V252H56.9927V239.088ZM58.8647 237.288C58.1767 237.288 57.6167 237.088 57.1847 236.688C56.7527 236.288 56.5367 235.792 56.5367 235.2C56.5367 234.608 56.7527 234.112 57.1847 233.712C57.6167 233.312 58.1767 233.112 58.8647 233.112C59.5527 233.112 60.1127 233.304 60.5447 233.688C60.9767 234.072 61.1927 234.552 61.1927 235.128C61.1927 235.752 60.9767 236.272 60.5447 236.688C60.1127 237.088 59.5527 237.288 58.8647 237.288ZM72.1294 238.896C73.7294 238.896 75.0174 239.376 75.9934 240.336C76.9854 241.296 77.4814 242.72 77.4814 244.608V252H73.7374V245.184C73.7374 244.16 73.5134 243.4 73.0654 242.904C72.6174 242.392 71.9694 242.136 71.1214 242.136C70.1774 242.136 69.4254 242.432 68.8654 243.024C68.3054 243.6 68.0254 244.464 68.0254 245.616V252H64.2814V239.088H67.8574V240.6C68.3534 240.056 68.9694 239.64 69.7054 239.352C70.4414 239.048 71.2494 238.896 72.1294 238.896ZM94.4058 239.088V249.84C94.4058 252.208 93.7898 253.968 92.5578 255.12C91.3258 256.272 89.5258 256.848 87.1578 256.848C85.9098 256.848 84.7258 256.696 83.6058 256.392C82.4858 256.088 81.5578 255.648 80.8218 255.072L82.3098 252.384C82.8538 252.832 83.5418 253.184 84.3738 253.44C85.2058 253.712 86.0378 253.848 86.8698 253.848C88.1658 253.848 89.1178 253.552 89.7258 252.96C90.3498 252.384 90.6618 251.504 90.6618 250.32V249.768C89.6858 250.84 88.3258 251.376 86.5818 251.376C85.3978 251.376 84.3098 251.12 83.3178 250.608C82.3418 250.08 81.5658 249.344 80.9898 248.4C80.4138 247.456 80.1258 246.368 80.1258 245.136C80.1258 243.904 80.4138 242.816 80.9898 241.872C81.5658 240.928 82.3418 240.2 83.3178 239.688C84.3098 239.16 85.3978 238.896 86.5818 238.896C88.4538 238.896 89.8778 239.512 90.8538 240.744V239.088H94.4058ZM87.3258 248.304C88.3178 248.304 89.1258 248.016 89.7498 247.44C90.3898 246.848 90.7098 246.08 90.7098 245.136C90.7098 244.192 90.3898 243.432 89.7498 242.856C89.1258 242.264 88.3178 241.968 87.3258 241.968C86.3338 241.968 85.5178 242.264 84.8778 242.856C84.2378 243.432 83.9178 244.192 83.9178 245.136C83.9178 246.08 84.2378 246.848 84.8778 247.44C85.5178 248.016 86.3338 248.304 87.3258 248.304Z" fill="white"/>
<circle cx="245" cy="340" r="150" fill="#DBE7DA" fill-opacity="0.6"/>
<path d="M184.264 435.2C185.752 435.2 187.04 435.448 188.128 435.944C189.232 436.44 190.08 437.144 190.672 438.056C191.264 438.968 191.56 440.048 191.56 441.296C191.56 442.528 191.264 443.608 190.672 444.536C190.08 445.448 189.232 446.152 188.128 446.648C187.04 447.128 185.752 447.368 184.264 447.368H180.88V452H176.992V435.2H184.264ZM184.048 444.2C185.216 444.2 186.104 443.952 186.712 443.456C187.32 442.944 187.624 442.224 187.624 441.296C187.624 440.352 187.32 439.632 186.712 439.136C186.104 438.624 185.216 438.368 184.048 438.368H180.88V444.2H184.048ZM202.224 438.896C203.824 438.896 205.112 439.376 206.088 440.336C207.08 441.296 207.576 442.72 207.576 444.608V452H203.832V445.184C203.832 444.16 203.608 443.4 203.16 442.904C202.712 442.392 202.064 442.136 201.216 442.136C200.272 442.136 199.52 442.432 198.96 443.024C198.4 443.6 198.12 444.464 198.12 445.616V452H194.376V434.192H198.12V440.432C198.616 439.936 199.216 439.56 199.92 439.304C200.624 439.032 201.392 438.896 202.224 438.896ZM211.04 439.088H214.784V452H211.04V439.088ZM212.912 437.288C212.224 437.288 211.664 437.088 211.232 436.688C210.8 436.288 210.584 435.792 210.584 435.2C210.584 434.608 210.8 434.112 211.232 433.712C211.664 433.312 212.224 433.112 212.912 433.112C213.6 433.112 214.16 433.304 214.592 433.688C215.024 434.072 215.24 434.552 215.24 435.128C215.24 435.752 215.024 436.272 214.592 436.688C214.16 437.088 213.6 437.288 212.912 437.288ZM218.329 434.192H222.073V452H218.329V434.192ZM231.761 452.192C230.401 452.192 229.177 451.912 228.089 451.352C227.017 450.776 226.177 449.984 225.569 448.976C224.961 447.968 224.657 446.824 224.657 445.544C224.657 444.264 224.961 443.12 225.569 442.112C226.177 441.104 227.017 440.32 228.089 439.76C229.177 439.184 230.401 438.896 231.761 438.896C233.121 438.896 234.337 439.184 235.409 439.76C236.481 440.32 237.321 441.104 237.929 442.112C238.537 443.12 238.841 444.264 238.841 445.544C238.841 446.824 238.537 447.968 237.929 448.976C237.321 449.984 236.481 450.776 235.409 451.352C234.337 451.912 233.121 452.192 231.761 452.192ZM231.761 449.12C232.721 449.12 233.505 448.8 234.113 448.16C234.737 447.504 235.049 446.632 235.049 445.544C235.049 444.456 234.737 443.592 234.113 442.952C233.505 442.296 232.721 441.968 231.761 441.968C230.801 441.968 230.009 442.296 229.385 442.952C228.761 443.592 228.449 444.456 228.449 445.544C228.449 446.632 228.761 447.504 229.385 448.16C230.009 448.8 230.801 449.12 231.761 449.12ZM245.758 452.192C244.686 452.192 243.638 452.064 242.614 451.808C241.59 451.536 240.774 451.2 240.166 450.8L241.414 448.112C241.99 448.48 242.686 448.784 243.502 449.024C244.318 449.248 245.118 449.36 245.902 449.36C247.486 449.36 248.278 448.968 248.278 448.184C248.278 447.816 248.062 447.552 247.63 447.392C247.198 447.232 246.534 447.096 245.638 446.984C244.582 446.824 243.71 446.64 243.022 446.432C242.334 446.224 241.734 445.856 241.222 445.328C240.726 444.8 240.478 444.048 240.478 443.072C240.478 442.256 240.71 441.536 241.174 440.912C241.654 440.272 242.342 439.776 243.238 439.424C244.15 439.072 245.222 438.896 246.454 438.896C247.366 438.896 248.27 439 249.166 439.208C250.078 439.4 250.83 439.672 251.422 440.024L250.174 442.688C249.038 442.048 247.798 441.728 246.454 441.728C245.654 441.728 245.054 441.84 244.654 442.064C244.254 442.288 244.054 442.576 244.054 442.928C244.054 443.328 244.27 443.608 244.702 443.768C245.134 443.928 245.822 444.08 246.766 444.224C247.822 444.4 248.686 444.592 249.358 444.8C250.03 444.992 250.614 445.352 251.11 445.88C251.606 446.408 251.854 447.144 251.854 448.088C251.854 448.888 251.614 449.6 251.134 450.224C250.654 450.848 249.95 451.336 249.022 451.688C248.11 452.024 247.022 452.192 245.758 452.192ZM260.378 452.192C259.018 452.192 257.794 451.912 256.706 451.352C255.634 450.776 254.794 449.984 254.186 448.976C253.578 447.968 253.274 446.824 253.274 445.544C253.274 444.264 253.578 443.12 254.186 442.112C254.794 441.104 255.634 440.32 256.706 439.76C257.794 439.184 259.018 438.896 260.378 438.896C261.738 438.896 262.954 439.184 264.026 439.76C265.098 440.32 265.938 441.104 266.546 442.112C267.154 443.12 267.458 444.264 267.458 445.544C267.458 446.824 267.154 447.968 266.546 448.976C265.938 449.984 265.098 450.776 264.026 451.352C262.954 451.912 261.738 452.192 260.378 452.192ZM260.378 449.12C261.338 449.12 262.122 448.8 262.73 448.16C263.354 447.504 263.666 446.632 263.666 445.544C263.666 444.456 263.354 443.592 262.73 442.952C262.122 442.296 261.338 441.968 260.378 441.968C259.418 441.968 258.626 442.296 258.002 442.952C257.378 443.592 257.066 444.456 257.066 445.544C257.066 446.632 257.378 447.504 258.002 448.16C258.626 448.8 259.418 449.12 260.378 449.12ZM277.662 438.896C278.862 438.896 279.95 439.176 280.926 439.736C281.918 440.28 282.694 441.056 283.254 442.064C283.814 443.056 284.094 444.216 284.094 445.544C284.094 446.872 283.814 448.04 283.254 449.048C282.694 450.04 281.918 450.816 280.926 451.376C279.95 451.92 278.862 452.192 277.662 452.192C276.014 452.192 274.718 451.672 273.774 450.632V456.656H270.03V439.088H273.606V440.576C274.534 439.456 275.886 438.896 277.662 438.896ZM277.014 449.12C277.974 449.12 278.758 448.8 279.366 448.16C279.99 447.504 280.302 446.632 280.302 445.544C280.302 444.456 279.99 443.592 279.366 442.952C278.758 442.296 277.974 441.968 277.014 441.968C276.054 441.968 275.262 442.296 274.638 442.952C274.03 443.592 273.726 444.456 273.726 445.544C273.726 446.632 274.03 447.504 274.638 448.16C275.262 448.8 276.054 449.12 277.014 449.12ZM294.519 438.896C296.119 438.896 297.407 439.376 298.383 440.336C299.375 441.296 299.871 442.72 299.871 444.608V452H296.127V445.184C296.127 444.16 295.903 443.4 295.455 442.904C295.007 442.392 294.359 442.136 293.511 442.136C292.567 442.136 291.815 442.432 291.255 443.024C290.695 443.6 290.415 444.464 290.415 445.616V452H286.671V434.192H290.415V440.432C290.911 439.936 291.511 439.56 292.215 439.304C292.919 439.032 293.687 438.896 294.519 438.896ZM315.916 439.088L310.084 452.792C309.492 454.28 308.756 455.328 307.876 455.936C307.012 456.544 305.964 456.848 304.732 456.848C304.06 456.848 303.396 456.744 302.74 456.536C302.084 456.328 301.548 456.04 301.132 455.672L302.5 453.008C302.788 453.264 303.116 453.464 303.484 453.608C303.868 453.752 304.244 453.824 304.612 453.824C305.124 453.824 305.54 453.696 305.86 453.44C306.18 453.2 306.468 452.792 306.724 452.216L306.772 452.096L301.18 439.088H305.044L308.668 447.848L312.316 439.088H315.916Z" fill="white"/>
</svg>
