<svg width="60" height="60" viewBox="0 0 60 60" fill="none" xmlns="http://www.w3.org/2000/svg">
<circle cx="30" cy="30" r="30" fill="white"/>
<path d="M41.8207 21H17.9862C17.4594 21 16.9542 21.2107 16.5817 21.5858C16.2093 21.9609 16 22.4696 16 23V39C16 39.5304 16.2093 40.0391 16.5817 40.4142C16.9542 40.7893 17.4594 41 17.9862 41H41.8207C42.3475 41 42.8527 40.7893 43.2252 40.4142C43.5977 40.0391 43.8069 39.5304 43.8069 39V23C43.8069 22.4696 43.5977 21.9609 43.2252 21.5858C42.8527 21.2107 42.3475 21 41.8207 21V21ZM39.6359 23L29.9035 29.78L20.171 23H39.6359ZM17.9862 39V23.91L29.3374 31.82C29.5036 31.9361 29.7011 31.9984 29.9035 31.9984C30.1058 31.9984 30.3033 31.9361 30.4695 31.82L41.8207 23.91V39H17.9862Z" stroke="#FB7F53" stroke-width="2"/>
</svg>
