<svg width="40" height="41" viewBox="0 0 40 41" fill="none" xmlns="http://www.w3.org/2000/svg">
<path fill-rule="evenodd" clip-rule="evenodd" d="M20 0.145508C8.95433 0.145508 0 9.09984 0 20.1455C0 31.1912 8.95433 40.1455 20 40.1455C31.0457 40.1455 40 31.1912 40 20.1455C40 9.09984 31.0457 0.145508 20 0.145508ZM9.60133 16.7103H14.1337V30.3285H9.60133V16.7103ZM14.4323 12.4978C14.4029 11.1625 13.4481 10.1455 11.8975 10.1455C10.347 10.1455 9.33333 11.1625 9.33333 12.4978C9.33333 13.8053 10.3171 14.8516 11.8387 14.8516H11.8677C13.4481 14.8516 14.4323 13.8053 14.4323 12.4978ZM25.2609 16.3906C28.2435 16.3906 30.4795 18.3374 30.4795 22.5203L30.4793 30.3285H25.9471V23.0428C25.9471 21.2128 25.2912 19.964 23.6504 19.964C22.3983 19.964 21.6524 20.8058 21.3248 21.619C21.205 21.9103 21.1756 22.3163 21.1756 22.7233V30.3288H16.6426C16.6426 30.3288 16.7023 17.9886 16.6426 16.7108H21.1756V18.6396C21.7771 17.7123 22.8545 16.3906 25.2609 16.3906Z" fill="white"/>
</svg>
